<svg xmlns="http://www.w3.org/2000/svg" data-name="Layer 1" width="671.52209" height="516.5519" viewBox="0 0 671.52209 516.5519" xmlns:xlink="http://www.w3.org/1999/xlink"><path d="M714.25623,337.17107c14.40587-38.73235,48.442-72.19975,89.574-76.18066A190.39843,190.39843,0,0,0,773.73826,388.201c2.10493,17.203,6.23736,36.11769-3.03627,50.7593-5.77009,9.11047-15.93914,14.71912-26.42153,17.25022-10.483,2.531-21.40582,2.3349-32.188,2.12433l-2.41384,1.19194C702.09559,418.90394,699.85037,375.90342,714.25623,337.17107Z" transform="translate(-264.23896 -191.72405)" fill="#f0f0f0"/><path d="M804.0293,261.83435a162.73935,162.73935,0,0,0-60.45985,79.81243c-2.37124,6.93389-4.17322,14.17413-4.27711,21.53716a40.19468,40.19468,0,0,0,5.43533,20.44411c3.24478,5.85508,7.24188,11.46843,9.00688,18.0103,1.86039,6.89548.34393,13.87115-3.45644,19.82867-4.64985,7.2892-11.64153,12.47292-18.655,17.30456C723.836,444.13619,715.6627,449.585,710.898,458.01242c-.57731,1.0211-2.128.06561-1.55152-.954,8.28972-14.66233,25.6874-19.98825,36.33039-32.44276,4.96621-5.8115,8.21115-13.15484,6.67573-20.89328-1.34266-6.76694-5.45955-12.559-8.7962-18.459-3.50354-6.19509-5.79254-12.62428-6.05939-19.79191-.273-7.3321,1.24974-14.65805,3.43331-21.62215a157.886,157.886,0,0,1,22.2696-44.03568,165.625,165.625,0,0,1,39.97114-39.58613c.95861-.66927,1.81057.94189.85822,1.60679Z" transform="translate(-264.23896 -191.72405)" fill="#fff"/><path d="M746.58457,331.03381a24.41609,24.41609,0,0,1-12.19648-29.16909c.3593-1.11541,2.10948-.60948,1.7497.50742a22.60875,22.60875,0,0,0,11.40073,27.11015c1.04712.52635.08718,2.07486-.95395,1.55152Z" transform="translate(-264.23896 -191.72405)" fill="#fff"/><path d="M742.69144,380.876a47.06,47.06,0,0,0,26.6914-21.53564c.5809-1.019,2.13173-.06385,1.55153.954A48.94959,48.94959,0,0,1,743.114,382.64761c-1.12076.35042-1.53723-1.42312-.42255-1.77164Z" transform="translate(-264.23896 -191.72405)" fill="#fff"/><path d="M775.41584,286.50364a13.82072,13.82072,0,0,0,12.89848,2.36892c1.11576-.36446,1.53105,1.40955.42255,1.77163a15.48721,15.48721,0,0,1-14.275-2.589.94127.94127,0,0,1-.29878-1.25274.91526.91526,0,0,1,1.25273-.29878Z" transform="translate(-264.23896 -191.72405)" fill="#fff"/><path d="M902.97269,359.7196c-.69023.24739-1.38046.49478-2.075.757a182.01161,182.01161,0,0,0-26.83058,12.32209c-.67045.36266-1.34445.74028-2.00309,1.12144A191.88011,191.88011,0,0,0,818.376,419.83559a186.33934,186.33934,0,0,0-16.01376,23.34847c-6.54286,11.29406-12.73837,24.06028-22.34728,32.291a31.96646,31.96646,0,0,1-3.13139,2.41826L711.32,462.37915c-.13131-.11-.26687-.20536-.3989-.31556l-2.64608-.49974c.21491-.43883.44723-.88934.66214-1.32816.1236-.25507.26181-.50669.38541-.76176.087-.16895.17481-.33782.24369-.49526.02876-.05635.05825-.11252.08348-.154.06888-.15744.14958-.29636.21491-.43882q1.93751-3.78275,3.93494-7.55141c.00354-.015.00354-.015.02169-.02649,10.19513-19.11771,22.07586-37.55224,36.3769-53.59746.43043-.4826.86367-.98035,1.324-1.45586a177.81,177.81,0,0,1,21.12062-19.897,157.19321,157.19321,0,0,1,12.94424-9.2422,130.71583,130.71583,0,0,1,37.47369-16.31174c26.45309-6.85124,54.80286-5.16605,78.13912,8.36463C901.79662,359.01488,902.3795,359.35807,902.97269,359.7196Z" transform="translate(-264.23896 -191.72405)" fill="#f0f0f0"/><path d="M902.62839,360.51686a162.73946,162.73946,0,0,0-96.3264,27.32475c-6.068,4.10868-11.86589,8.80469-16.3819,14.62111a40.19466,40.19466,0,0,0-7.96895,19.59592c-.93438,6.62853-1.12255,13.517-3.652,19.803-2.66613,6.62574-8.07677,11.2824-14.698,13.75107-8.10125,3.02048-16.80467,2.94992-25.31349,2.58513-9.44742-.405-19.25393-.9754-28.13216,2.88479-1.07573.46771-1.73856-1.22879-.66446-1.6958,15.44661-6.71606,32.54426-.49391,48.54056-4.03032,7.46417-1.65016,14.47627-5.55973,17.9094-12.66287,3.00213-6.21139,3.20224-13.31468,4.09032-20.03439.9325-7.05581,2.97567-13.56729,7.078-19.45091,4.19647-6.01862,9.823-10.9512,15.75933-15.197a157.88622,157.88622,0,0,1,44.29354-21.75219,165.62515,165.62515,0,0,1,55.74831-7.54192c1.16834.04278.87855,1.84214-.28216,1.79964Z" transform="translate(-264.23896 -191.72405)" fill="#fff"/><path d="M815.09913,381.18306a24.41607,24.41607,0,0,1,7.82361-30.633c.95843-.67428,2.05124.78341,1.09153,1.45858a22.60876,22.60876,0,0,0-7.21934,28.51c.51917,1.05071-1.1796,1.70916-1.6958.66446Z" transform="translate(-264.23896 -191.72405)" fill="#fff"/><path d="M781.98226,418.63531a47.0601,47.0601,0,0,0,34.27754-1.12494c1.07734-.46389,1.7405,1.23247.66446,1.6958a48.94954,48.94954,0,0,1-35.67126,1.09809c-1.10585-.395-.37058-2.06179.72926-1.66895Z" transform="translate(-264.23896 -191.72405)" fill="#fff"/><path d="M864.92953,362.98663a13.82068,13.82068,0,0,0,8.87246,9.65722c1.1103.38077.37381,2.04725-.72927,1.669a15.48721,15.48721,0,0,1-9.839-10.66172.94126.94126,0,0,1,.51567-1.18013.91527.91527,0,0,1,1.18013.51567Z" transform="translate(-264.23896 -191.72405)" fill="#fff"/><path d="M334.37445,692.19971c-37.5339-17.28962-68.33548-53.75588-69.19893-95.071a190.3985,190.3985,0,0,0,124.575,39.61237c17.31282-.79984,36.48558-3.49212,50.38507,6.8607,8.64873,6.4416,13.47344,17.00516,15.20574,27.64875,1.73211,10.64416.71176,21.521-.31242,32.25647l1.00625,2.497C414.95562,710.49772,371.90834,709.48933,334.37445,692.19971Z" transform="translate(-264.23896 -191.72405)" fill="#f0f0f0"/><path d="M266.03209,596.99389A162.73938,162.73938,0,0,0,341.051,663.30817c6.735,2.88809,13.81852,5.23167,21.15268,5.8913a40.19472,40.19472,0,0,0,20.79618-3.876c6.0834-2.79336,11.98256-6.35515,18.639-7.6211,7.01628-1.33437,13.85751.70453,19.511,4.94394,6.91725,5.187,11.55819,12.55019,15.84641,19.90847,4.76124,8.17,9.57725,16.73144,17.62083,22.11892.9746.65276-.09526,2.12683-1.06838,1.47505-13.99446-9.37328-17.99139-27.12348-29.60662-38.67658-5.41988-5.39089-12.49722-9.1811-20.32951-8.23443-6.849.82781-12.93542,4.49556-19.07054,7.37714-6.442,3.02571-13.02565,4.82267-20.193,4.54749-7.33177-.28149-14.52181-2.35308-21.30114-5.05631a157.88611,157.88611,0,0,1-42.22824-25.53138,165.625,165.625,0,0,1-36.45466-42.84638c-.595-1.00641,1.07593-1.73426,1.667-.73443Z" transform="translate(-264.23896 -191.72405)" fill="#fff"/><path d="M330.696,659.50023a24.4161,24.4161,0,0,1-30.00683,9.95893c-1.08509-.4425-.44844-2.14948.6381-1.70638a22.60879,22.60879,0,0,0,27.89368-9.32094c.60392-1.00439,2.07552.06974,1.47505,1.06839Z" transform="translate(-264.23896 -191.72405)" fill="#fff"/><path d="M380.10185,667.14609a47.06,47.06,0,0,0-19.45854-28.24146c-.97225-.6562.09732-2.13046,1.06839-1.47506a48.94954,48.94954,0,0,1,20.18864,29.429c.26479,1.144-1.53514,1.42537-1.79849.28756Z" transform="translate(-264.23896 -191.72405)" fill="#fff"/><path d="M288.47018,627.38856a13.82069,13.82069,0,0,0,3.33619-12.68275c-.27916-1.1401,1.52114-1.42024,1.79849-.28756a15.48721,15.48721,0,0,1-3.65963,14.0387.94126.94126,0,0,1-1.27172.20333.91527.91527,0,0,1-.20333-1.27172Z" transform="translate(-264.23896 -191.72405)" fill="#fff"/><path d="M371.10959,505.72486c.19456.707.38912,1.41389.59811,2.12621a182.011,182.011,0,0,0,10.2608,27.68447c.311.69593.63663,1.39652.967,2.08206a191.88,191.88,0,0,0,41.73011,57.00208,186.34036,186.34036,0,0,0,22.07251,17.73122c10.76773,7.377,23.02964,14.51891,30.51126,24.72193a31.967,31.967,0,0,1,2.17488,3.30506l-20.421,64.20481c-.11963.12262-.22492.25059-.34478.37393l-.69813,2.60078c-.42135-.24743-.853-.51311-1.27437-.76054-.245-.14251-.48547-.29933-.73048-.44184-.1619-.09954-.32366-.19982-.47544-.28039-.054-.03293-.1078-.06658-.14724-.09487-.15179-.08057-.28422-.17153-.42134-.24743q-3.62563-2.21764-7.2327-4.494c-.01466-.00467-.01466-.00467-.02478-.02364-18.29323-11.6097-35.77794-24.84859-50.6974-40.32046-.44872-.46564-.91232-.93523-1.35171-1.4302a177.80919,177.80919,0,0,1-18.24528-22.56284,157.19366,157.19366,0,0,1-8.23832-13.6052A130.71577,130.71577,0,0,1,355.686,584.69757c-4.83406-26.89493-1.01284-55.0365,14.24145-77.28435C370.31807,506.84436,370.7043,506.28906,371.10959,505.72486Z" transform="translate(-264.23896 -191.72405)" fill="#f0f0f0"/><path d="M371.87858,506.12839a162.73942,162.73942,0,0,0,19.9726,98.11479c3.63871,6.36092,7.88349,12.4969,13.34227,17.43924a40.19461,40.19461,0,0,0,18.93819,9.426c6.539,1.43228,13.39364,2.14009,19.47065,5.137,6.40549,3.15886,10.64027,8.9057,12.60188,15.69444,2.40009,8.30622,1.67249,16.97946.6662,25.43644-1.1173,9.38986-2.42659,19.12528.75213,28.26968.38515,1.108-1.35657,1.6408-1.74113.5345-5.53043-15.90967,1.96509-32.48863-.35325-48.70631-1.08179-7.56747-4.45067-14.85478-11.27428-18.81451-5.96695-3.46261-13.03484-4.19856-19.6683-5.59154-6.96525-1.46266-13.30384-3.99172-18.86087-8.52665-5.68454-4.639-10.17815-10.62194-13.96353-16.86194a157.8862,157.8862,0,0,1-18.34523-45.8097,165.6251,165.6251,0,0,1-3.31053-56.15865c.13089-1.16178,1.90322-.73693,1.7732.41725Z" transform="translate(-264.23896 -191.72405)" fill="#fff"/><path d="M385.876,594.96834a24.4161,24.4161,0,0,1-29.95474-10.11453c-.6-1.00662.93608-1.98623,1.53685-.97828a22.60877,22.60877,0,0,0,27.88339,9.35168c1.0869-.43835,1.61519,1.30529.5345,1.74113Z" transform="translate(-264.23896 -191.72405)" fill="#fff"/><path d="M420.72043,630.81887a47.06,47.06,0,0,0,1.46675-34.26461c-.3812-1.1093,1.36039-1.64247,1.74114-.53451a48.94952,48.94952,0,0,1-1.59877,35.65233c-.47736,1.07286-2.08389.21382-1.60912-.85321Z" transform="translate(-264.23896 -191.72405)" fill="#fff"/><path d="M371.49445,543.90611a13.82069,13.82069,0,0,0,10.29965-8.11785c.46353-1.07838,2.06963-.21815,1.60912.85321a15.48719,15.48719,0,0,1-11.37427,9.00578.94127.94127,0,0,1-1.13782-.60332.91528.91528,0,0,1,.60332-1.13782Z" transform="translate(-264.23896 -191.72405)" fill="#fff"/><path d="M420.79664,463.88161c-33.16617-32.64969-47.174-66.71152-39.4442-95.91008,9.9198-37.47017,53.98856-63.37763,120.90656-71.07942l.24715,2.14936c-65.98643,7.59406-109.38293,32.92008-119.06244,69.4835-7.52277,28.41593,6.28173,61.73366,38.87068,93.81564Z" transform="translate(-264.23896 -191.72405)" fill="#f0f0f0"/><path d="M740.79422,579.7781c-41.39342,0-86.37473-6.15129-131.054-17.97964-55.25177-14.62727-105.91173-36.70549-146.503-63.84869l1.202-1.79765c40.39583,27.01171,90.83135,48.98906,145.85446,63.55507,49.72364,13.16444,99.82012,19.264,144.8553,17.65433l.07816,2.161Q748.09308,579.77915,740.79422,579.7781Z" transform="translate(-264.23896 -191.72405)" fill="#f0f0f0"/><path d="M835.75583,566.17534l-.69286-2.049c37.02076-12.517,60.17576-32.68032,66.96183-58.31211,8.626-32.5842-10.11414-70.39606-52.76866-106.47046-42.87209-36.25766-104.69447-66.34238-174.08133-84.71123l.55345-2.09127c69.69,18.44965,131.81338,48.69016,174.92417,85.15113,43.32837,36.6437,62.31563,75.23872,53.46364,108.67528C897.13566,532.73456,873.49692,553.41542,835.75583,566.17534Z" transform="translate(-264.23896 -191.72405)" fill="#f0f0f0"/><path d="M495.81884,580.6822c-81.33562-36.07335-144.01087-82.874-176.47943-131.78169l1.80188-1.19667c32.24411,48.56921,94.59036,95.09258,175.55419,131.00116Z" transform="translate(-264.23896 -191.72405)" fill="#f0f0f0"/><path d="M781.78839,643.17632q-12.58406,0-25.598-.56189l.093-2.161c64.74593,2.80314,121.87245-4.94512,165.21455-22.41145l.80905,2.00678C884.49827,635.28336,836.30822,643.17632,781.78839,643.17632Z" transform="translate(-264.23896 -191.72405)" fill="#f0f0f0"/><path d="M734.59646,298.83182c-13.44328-4.37688-27.271-8.45222-41.09874-12.113-79.57335-21.06585-157.79477-28.5453-226.211-21.62563l-.21757-2.15253c68.67128-6.94238,147.16045.555,226.982,21.68689,13.86681,3.67134,27.73362,7.7583,41.21491,12.14785Z" transform="translate(-264.23896 -191.72405)" fill="#f0f0f0"/><path d="M369.964,467.12624c-33.16617-32.64969-47.174-66.71151-39.4442-95.91008,9.9198-37.47017,53.98856-63.37762,120.90656-71.07941l.24715,2.14936c-65.98643,7.59406-109.38293,32.92008-119.06244,69.4835-7.52277,28.41593,6.28173,61.73366,38.87069,93.81564Z" transform="translate(-264.23896 -191.72405)" fill="#f0f0f0"/><path d="M689.96157,583.02274c-41.39341,0-86.37473-6.15129-131.054-17.97964-55.25178-14.62728-105.91174-36.70549-146.503-63.8487l1.202-1.79764c40.39584,27.01171,90.83135,48.98905,145.85446,63.55507,49.72364,13.16443,99.82012,19.264,144.8553,17.65433l.07816,2.161Q697.26043,583.02379,689.96157,583.02274Z" transform="translate(-264.23896 -191.72405)" fill="#f0f0f0"/><path d="M784.92319,569.42l-.69287-2.049c37.02076-12.517,60.17577-32.68032,66.96183-58.3121,8.626-32.58421-10.11414-70.39606-52.76866-106.47047C755.5514,366.33073,693.729,336.246,624.34217,317.87716l.55344-2.09127C694.5856,334.23554,756.709,364.476,799.81979,400.937c43.32837,36.6437,62.31562,75.23872,53.46363,108.67527C846.303,535.9792,822.66427,556.66006,784.92319,569.42Z" transform="translate(-264.23896 -191.72405)" fill="#f0f0f0"/><path d="M444.98619,583.92684c-81.33562-36.07335-144.01087-82.874-176.47942-131.7817l1.80187-1.19667c32.24411,48.56922,94.59036,95.09259,175.55419,131.00117Z" transform="translate(-264.23896 -191.72405)" fill="#f0f0f0"/><path d="M730.95574,646.421q-12.58405,0-25.598-.5619l.09294-2.161c64.74593,2.80315,121.87246-4.94511,165.21456-22.41144l.809,2.00677C833.66562,638.528,785.47558,646.421,730.95574,646.421Z" transform="translate(-264.23896 -191.72405)" fill="#f0f0f0"/><path d="M683.76381,302.07645c-13.44328-4.37688-27.271-8.45221-41.09874-12.113-79.57335-21.06585-157.79477-28.54531-226.211-21.62563l-.21758-2.15253c68.67129-6.94239,147.16045.555,226.982,21.68689,13.86681,3.67134,27.73362,7.75829,41.21492,12.14785Z" transform="translate(-264.23896 -191.72405)" fill="#f0f0f0"/><path d="M468.87453,462.69114a16.78275,16.78275,0,0,0-16.764,16.764,787.72309,787.72309,0,0,0-6.35989,141.64658c.12727,3.02072.26827,5.78373.432,8.44957.23765,4.40223.53972,9.0495.89724,13.81506.20543,2.8116.42195,5.63164.65907,8.44218.39713,4.57756.83334,9.22905,1.29754,13.82457.29151,2.80737.59411,5.62847.91783,8.438.62158,5.51863,1.325,11.17562,2.15148,17.29417A16.80547,16.80547,0,0,0,468.87453,708.202H750.07641a16.78275,16.78275,0,0,0,16.764-16.764l.01267-.11618c1.25265-5.70663,2.41922-11.522,3.468-17.28572.56085-3.03868,1.04511-5.79852,1.48026-8.4369.789-4.80359,1.49083-9.453,2.08441-13.81823.40611-2.93094.77366-5.769,1.09158-8.439.52334-4.36949.99705-8.88579,1.44752-13.80766.24662-2.67535.47264-5.43836.69181-8.44641v-.00106A491.7331,491.7331,0,0,0,766.853,479.57128l-.01267-.11618a16.78275,16.78275,0,0,0-16.764-16.764Z" transform="translate(-264.23896 -191.72405)" fill="#3f3d56"/><path d="M620.39285,534.45867c-60.92989,0-125.4931-5.53658-209.992-16.61292h-.009a17.78279,17.78279,0,0,1-17.65486-15.8683,16.33291,16.33291,0,0,1-.11143-1.973V449.17182a2.57984,2.57984,0,0,1,.01478-.32531,17.88428,17.88428,0,0,1,17.83072-17.52019c147.00994-19.98853,236.31351-19.98642,398.07536.00422h.00739a17.88113,17.88113,0,0,1,17.761,17.57407,1.97187,1.97187,0,0,1,.01056.26721v50.83265a16.37335,16.37335,0,0,1-.112,1.97826A17.807,17.807,0,0,1,808.47988,517.85C738.59132,528.921,681.308,534.45867,620.39285,534.45867Z" transform="translate(-264.23896 -191.72405)" fill="currentColor"/><path d="M630.16637,569.76417H593.19789a17.76765,17.76765,0,0,1-17.74728-17.74728V417.70877a17.76766,17.76766,0,0,1,17.74728-17.74728h36.96848a17.76777,17.76777,0,0,1,17.7478,17.74728V552.01689A17.76776,17.76776,0,0,1,630.16637,569.76417Z" transform="translate(-264.23896 -191.72405)" fill="#3f3d56"/><path d="M714.09809,374.26152a46.871,46.871,0,0,0-1.40969-7.4518,48.31277,48.31277,0,0,0-2.74017-7.13362,41.985,41.985,0,0,0-18.90375-19.6287c-10.31172-5.07621-22.10746-5.49163-33.19456-3.04587a65.60467,65.60467,0,0,0-25.6438,12.00579A66.68654,66.68654,0,0,0,621.511,359.0944c-3.285,3.94159-9.39592,14.77084-9.83636,15.77344A65.65846,65.65846,0,0,0,597.0819,353.993a68.60755,68.60755,0,0,0-25.136-15.19088,63.33207,63.33207,0,0,0-15.40609-3.13149,49.03154,49.03154,0,0,0-16.52565,1.44184,41.63138,41.63138,0,0,0-23.564,17.22518,43.45194,43.45194,0,0,0-7.35958,26.50381,44.58105,44.58105,0,0,0,3.03115,13.83922,52.76431,52.76431,0,0,0,3.31237,6.94859,54.05393,54.05393,0,0,0,4.40341,6.30932,49.87922,49.87922,0,0,0,24.5047,16.31765c10.27468,3.17546,21.17358,3.27923,31.739,1.78841,10.84972-1.531,21.29326-5.04321,31.512-8.88968,1.36322-.51311,2.7207-1.04115,4.08022-1.564,9.08449,3.49475,18.246,6.86534,27.75547,9.0046a83.57644,83.57644,0,0,0,32.6722,1.31028,52.428,52.428,0,0,0,27.09377-13.23441,48.65189,48.65189,0,0,0,14.03619-24.37452A42.07665,42.07665,0,0,0,714.09809,374.26152ZM573.25957,415.59611a72.84607,72.84607,0,0,1-17.67.10338,54.84149,54.84149,0,0,1-12.28767-3.27051,38.632,38.632,0,0,1-20.70364-20.55571,41.35361,41.35361,0,0,1-2.50543-9.10759,37.705,37.705,0,0,1-.00257-8.35782,39.33793,39.33793,0,0,1,2.34958-8.52819,40.18986,40.18986,0,0,1,4.411-7.55155,37.90379,37.90379,0,0,1,5.69013-5.71521,34.63915,34.63915,0,0,1,6.37382-3.73484,38.95352,38.95352,0,0,1,8.33584-2.22983,49.33657,49.33657,0,0,1,11.62186.09076,60.0992,60.0992,0,0,1,13.38578,3.68976,63.17378,63.17378,0,0,1,12.88963,7.51511,61.87593,61.87593,0,0,1,9.96053,9.93062A61.03434,61.03434,0,0,1,602.361,380.3633a63.26732,63.26732,0,0,1,3.89466,14.39293l.00838.07221a65.6,65.6,0,0,0-.42479,7.46784c.00185.96128.0439,1.92136.09229,2.88091a5.74665,5.74665,0,0,0-1.12683,1.51664,181.72746,181.72746,0,0,1-23.1162,7.33093Q577.50951,414.9895,573.25957,415.59611Zm130.01831-32.83069a41.34678,41.34678,0,0,1-2.50583,9.10871A38.41847,38.41847,0,0,1,680.06881,412.429a54.84257,54.84257,0,0,1-12.2878,3.27051,72.86439,72.86439,0,0,1-17.70212-.1072c-10.43444-1.49208-20.50012-4.7857-30.346-8.46146-.40538-.15137-.8076-.31092-1.21252-.46347a5.64344,5.64344,0,0,0-1.07818-1.5,64.7573,64.7573,0,0,0-.32306-10.4382,63.27186,63.27186,0,0,1,3.89057-14.36586,61.03446,61.03446,0,0,1,7.25218-12.48834,61.87273,61.87273,0,0,1,9.96092-9.93109,63.17378,63.17378,0,0,1,12.88963-7.51511,60.10468,60.10468,0,0,1,13.38591-3.68976,49.33815,49.33815,0,0,1,11.6216-.09076,38.95859,38.95859,0,0,1,8.336,2.22983,34.63817,34.63817,0,0,1,6.37428,3.73517,37.89835,37.89835,0,0,1,5.68987,5.71521,40.19532,40.19532,0,0,1,4.41081,7.55122,39.33847,39.33847,0,0,1,2.34957,8.52819A37.70565,37.70565,0,0,1,703.27788,382.76542Z" transform="translate(-264.23896 -191.72405)" fill="#3f3d56"/><circle cx="234.91885" cy="377.49935" r="6.48927" fill="currentColor"/><circle cx="281.42532" cy="361.27616" r="6.48927" fill="currentColor"/><circle cx="260.87595" cy="412.10881" r="6.48927" fill="currentColor"/><circle cx="453.39108" cy="377.49935" r="6.48927" fill="currentColor"/><circle cx="406.88462" cy="361.27616" r="6.48927" fill="currentColor"/><circle cx="427.43398" cy="412.10881" r="6.48927" fill="currentColor"/><circle cx="458.7988" cy="491.06164" r="6.48927" fill="currentColor"/><circle cx="475.022" cy="444.55518" r="6.48927" fill="currentColor"/><circle cx="424.18935" cy="465.10453" r="6.48927" fill="currentColor"/><circle cx="272.77294" cy="491.06164" r="6.48927" fill="currentColor"/><circle cx="288.99614" cy="444.55518" r="6.48927" fill="currentColor"/><circle cx="238.16349" cy="465.10453" r="6.48927" fill="currentColor"/><path id="e3b13650-ec26-4d46-b148-6e027bc06f3e-337" data-name="Path 2961" d="M688.85406,230.95885a15.505,15.505,0,0,0,15.09905-1.77382c5.488-4.09309,7.54528-11.23784,9.26848-17.86242l5.09038-19.59856-8.59743,5.21981c-6.1831,3.75309-12.508,7.63053-16.97107,13.32833s-6.72093,13.68235-3.77964,20.2943" transform="translate(-264.23896 -191.72405)" fill="#f2f2f2"/><path id="fe24b413-2f3e-41ab-87c6-b6db4596196d-338" data-name="Path 2961" d="M458.90992,398.36947a15.50508,15.50508,0,0,0,2.42942-15.00753c-2.43349-6.39922-8.74159-10.33464-14.64091-13.80633l-17.455-10.2635,2.6655,9.69832c1.91612,6.97459,3.913,14.11963,8.17055,19.97257s11.3184,10.21134,18.4831,9.19343" transform="translate(-264.23896 -191.72405)" fill="#f2f2f2"/><path id="a5193a92-e661-4e54-a5ba-e6f2c93163f3-339" data-name="Path 2961" d="M868.81573,700.12072a15.50505,15.50505,0,0,0,2.42943-15.00753c-2.43349-6.39922-8.74159-10.33464-14.64091-13.80633l-17.455-10.2635,2.66551,9.69832c1.91612,6.97459,3.913,14.11963,8.17055,19.97257s11.3184,10.21134,18.4831,9.19343" transform="translate(-264.23896 -191.72405)" fill="#f2f2f2"/><circle cx="274.93604" cy="116.84683" r="8.65237" fill="#fd6584"/><circle cx="44.56681" cy="372.09162" r="8.65237" fill="#fd6584"/><circle cx="639.41694" cy="301.79115" r="8.65237" fill="#fd6584"/><circle cx="35.91444" cy="154.70093" r="8.65237" fill="#e6e6e6"/><circle cx="571.27956" cy="401.29335" r="8.65237" fill="#e6e6e6"/><circle cx="588.58429" cy="138.47775" r="8.65237" fill="#e6e6e6"/><path d="M473.44627,476.466c-.74792,1.1831-2.5614,1.01117-3.57972.27153-1.41366-1.0268-.956-3.00456.01749-4.17314,3.09392-3.71413,8.21092.20712,8.90113,3.89565A9.27938,9.27938,0,0,1,474.41893,485.7c-3.53,2.09176-8.11518,1.04275-11.15017-1.46083-6.331-5.22252-4.60725-15.679,2.42494-19.4573,4.48787-2.41126,10.16158-1.35295,14.58259.66691,4.97662,2.2737,9.256,5.75872,13.85821,8.66365a77.26931,77.26931,0,0,0,33.376,11.39673c2.07536.21164,2.06059-3.03451,0-3.24464a74.22262,74.22262,0,0,1-19.17778-4.61774,84.28,84.28,0,0,1-17.23256-9.45844c-5.41882-3.7143-11.08-7.32243-17.78609-7.93619a15.42963,15.42963,0,0,0-14.22369,6.18907,15.75693,15.75693,0,0,0-2.36808,13.822,14.59255,14.59255,0,0,0,11.12376,9.57724,11.9295,11.9295,0,0,0,12.57661-5.8106c2.46831-4.2689,2.388-10.00318-1.34011-13.54246a8.60681,8.60681,0,0,0-8.369-2.27617,7.36267,7.36267,0,0,0-4.97852,6.33629c-.35972,5.54119,7.50617,8.31229,10.51282,3.55618,1.119-1.77015-1.68757-3.4-2.80165-1.63763Z" transform="translate(-264.23896 -191.72405)" fill="#3f3d56"/><path d="M750.9124,476.466c.74791,1.1831,2.5614,1.01117,3.57972.27153,1.41366-1.0268.956-3.00456-.0175-4.17314-3.09392-3.71413-8.21091.20712-8.90113,3.89565A9.27937,9.27937,0,0,0,749.93974,485.7c3.53,2.09176,8.11518,1.04275,11.15017-1.46083,6.331-5.22252,4.60725-15.679-2.42494-19.4573-4.48788-2.41126-10.16159-1.35295-14.58259.66691-4.97663,2.2737-9.256,5.75872-13.85821,8.66365a77.26931,77.26931,0,0,1-33.376,11.39673c-2.07536.21164-2.06059-3.03451,0-3.24464a74.22279,74.22279,0,0,0,19.17779-4.61774,84.28024,84.28024,0,0,0,17.23256-9.45844c5.41882-3.7143,11.08-7.32243,17.78608-7.93619a15.42961,15.42961,0,0,1,14.22369,6.18907,15.75693,15.75693,0,0,1,2.36809,13.822,14.59257,14.59257,0,0,1-11.12376,9.57724,11.92951,11.92951,0,0,1-12.57662-5.8106c-2.46831-4.2689-2.388-10.00318,1.34011-13.54246a8.60682,8.60682,0,0,1,8.369-2.27617,7.36268,7.36268,0,0,1,4.97853,6.33629c.35972,5.54119-7.50618,8.31229-10.51282,3.55618-1.119-1.77015,1.68756-3.4,2.80165-1.63763Z" transform="translate(-264.23896 -191.72405)" fill="#3f3d56"/><polygon points="96.295 39.328 92.009 44.705 76.852 35.739 81.137 30.362 96.295 39.328" fill="#e4e4e4"/><polygon points="112.11 62.43 115.895 68.079 99.972 75.999 96.187 70.351 112.11 62.43" fill="#e4e4e4"/><polygon points="128.593 37.872 136.157 38.14 135.404 53.967 127.839 53.7 128.593 37.872" fill="#e4e4e4"/><polygon points="631.66 370.281 627.374 375.658 612.217 366.692 616.503 361.315 631.66 370.281" fill="#e4e4e4"/><polygon points="647.475 393.383 651.26 399.032 635.337 406.952 631.552 401.303 647.475 393.383" fill="#e4e4e4"/><polygon points="663.958 368.825 671.522 369.093 670.769 384.92 663.204 384.653 663.958 368.825" fill="#e4e4e4"/></svg>
